<svg width="419" height="419" viewBox="0 0 419 419" fill="none" xmlns="http://www.w3.org/2000/svg">
<path fill-rule="evenodd" clip-rule="evenodd" d="M45.4946 253.341L165.495 45.4946L373.341 165.495L253.341 373.341L45.4946 253.341ZM138.354 12.5042C145.257 0.546858 160.547 -3.55002 172.504 3.35354L406.331 138.354C418.288 145.257 422.385 160.547 415.482 172.504L280.482 406.331C273.578 418.288 258.288 422.385 246.331 415.482L12.5042 280.482C0.54686 273.578 -3.55002 258.288 3.35354 246.331L138.354 12.5042ZM136.854 166.854C128.569 166.854 121.854 173.569 121.854 181.854V271.854C121.854 280.138 128.569 286.854 136.854 286.854H226.854C235.138 286.854 241.854 280.138 241.854 271.854V181.854C241.854 173.569 235.138 166.854 226.854 166.854H136.854Z" fill="black"/>
</svg>
