<svg width="420" height="419" viewBox="0 0 420 419" fill="none" xmlns="http://www.w3.org/2000/svg">
<path fill-rule="evenodd" clip-rule="evenodd" d="M46.165 253.341L166.165 45.4946L374.011 165.495L254.011 373.341L46.165 253.341ZM139.024 12.5042C145.928 0.546858 161.217 -3.55002 173.175 3.35354L407.001 138.354C418.959 145.257 423.056 160.547 416.152 172.504L281.152 406.331C274.249 418.288 258.959 422.385 247.001 415.482L13.1746 280.482C1.21727 273.578 -2.87961 258.288 4.02395 246.331L139.024 12.5042ZM137.524 166.854C129.24 166.854 122.524 173.569 122.524 181.854V271.854C122.524 280.138 129.24 286.854 137.524 286.854H227.524C235.808 286.854 242.524 280.138 242.524 271.854V181.854C242.524 173.569 235.808 166.854 227.524 166.854H137.524Z" fill="url(#paint0_linear_70_40)"/>
<defs>
<linearGradient id="paint0_linear_70_40" x1="419.138" y1="-150.43" x2="119.236" y2="350.684" gradientUnits="userSpaceOnUse">
<stop stop-color="#A770EF"/>
<stop offset="1" stop-color="#E2ABFF"/>
</linearGradient>
</defs>
</svg>
