<svg width="420" height="419" viewBox="0 0 420 419" fill="none" xmlns="http://www.w3.org/2000/svg">
<path fill-rule="evenodd" clip-rule="evenodd" d="M46.0002 253.341L166 45.4946L373.846 165.495L253.846 373.341L46.0002 253.341ZM138.859 12.5042C145.763 0.546858 161.052 -3.55002 173.01 3.35354L406.837 138.354C418.794 145.257 422.891 160.547 415.987 172.504L280.987 406.331C274.084 418.288 258.794 422.385 246.837 415.482L13.0098 280.482C1.05248 273.578 -3.04441 258.288 3.85916 246.331L138.859 12.5042ZM137.359 166.854C129.075 166.854 122.359 173.569 122.359 181.854V271.854C122.359 280.138 129.075 286.854 137.359 286.854H227.359C235.643 286.854 242.359 280.138 242.359 271.854V181.854C242.359 173.569 235.643 166.854 227.359 166.854H137.359Z" fill="white"/>
</svg>
